<svg width="57" height="58" viewBox="0 0 57 58" fill="none" xmlns="http://www.w3.org/2000/svg">
<path d="M17.125 25.375C17.6255 25.375 18.0312 24.9693 18.0312 24.4688C18.0312 23.9682 17.6255 23.5625 17.125 23.5625C16.6245 23.5625 16.2187 23.9682 16.2187 24.4688C16.2187 24.9693 16.6245 25.375 17.125 25.375Z" fill="#0E97FB"/>
<path d="M21.6562 24.4688C21.6562 21.3866 18.0765 18.6126 17.6687 18.3063L17.125 17.8984L16.5812 18.3063C16.1734 18.6126 12.5937 21.3866 12.5937 24.4688C12.5937 26.9673 14.6264 29 17.125 29C19.6235 29 21.6562 26.9673 21.6562 24.4688ZM14.4062 24.4688C14.4062 22.9209 16.0547 21.1428 17.125 20.203C18.1953 21.1428 19.8437 22.9209 19.8437 24.4688C19.8437 25.9677 18.6239 27.1875 17.125 27.1875C15.626 27.1875 14.4062 25.9677 14.4062 24.4688Z" fill="#0E97FB"/>
<path d="M54.3447 41.6875H56.0937V39.875H54.3447C53.4339 39.875 52.5884 40.3272 52.0827 41.0857L51.2806 42.2883L47.0312 41.0133V36.25C48.0308 36.25 48.8437 35.4371 48.8437 34.4375V29.9062C48.8437 27.1612 47.6901 24.5068 45.6791 22.6263C43.64 20.7196 40.9748 19.7744 38.1944 19.9611C32.9862 20.3082 28.9062 24.8177 28.9062 30.2271V47.125C28.9062 48.4255 28.3444 49.6652 27.3638 50.528C26.3714 51.4007 25.1 51.7904 23.7741 51.6173C21.5339 51.3309 19.8437 49.3172 19.8437 46.9356V36.9043C20.3829 36.5898 20.75 36.0117 20.75 35.3438V31.7695C23.5222 30.3956 25.2812 27.5935 25.2812 24.4688C25.2812 23.4737 25.0737 22.5312 24.7484 21.6494L26.6451 19.4354C28.3471 17.4507 30.8229 16.3125 33.4375 16.3125V14.5C32.292 14.5 31.17 14.6867 30.1061 15.0329L30.2502 14.7456C30.5239 14.1982 30.6752 13.5928 30.706 12.982L31.3739 11.9806C31.8343 11.2873 32.6064 10.875 33.4375 10.875V9.0625C32.156 9.0625 30.9598 9.63162 30.1496 10.6004C30.1269 10.5596 30.1097 10.5161 30.0862 10.4763L28.3743 7.62337C28.1296 7.21466 28 6.74703 28 6.27125C28 5.86616 28.096 5.45925 28.2773 5.09675L28.8102 4.03009L27.1889 3.219L26.656 4.28566C26.3497 4.89919 26.1875 5.58612 26.1875 6.27125C26.1875 6.88841 26.318 7.49559 26.5645 8.05566L24.7121 7.31434L24.0388 8.99725L28.048 10.6013L28.5319 11.4088C28.7766 11.8166 28.9062 12.2842 28.9062 12.76C28.9062 13.1651 28.8102 13.572 28.6289 13.9345L27.4154 16.3605C26.6288 16.8934 25.9002 17.5196 25.2694 18.2564L23.8919 19.8632C22.4818 17.4961 20.4246 15.844 19.8437 15.4062L18.0312 14.0469V11.4885L21.9934 9.9035L21.32 8.22059L18.0312 9.53647V4.80584L18.6864 3.82347C19.1468 3.13109 19.9189 2.71875 20.75 2.71875V0.90625C19.3109 0.90625 17.975 1.62128 17.1784 2.81753L17.125 2.89728L16.0665 1.30953L14.5585 2.31456L16.2187 4.80584V6.89928L13.6939 6.05737C13.036 5.83806 12.5937 5.22544 12.5937 4.53125H10.7812C10.7812 6.00572 11.721 7.30981 13.1212 7.77653L16.2187 8.80875V14.0469L14.4053 15.4072C13.9676 15.737 12.6871 16.762 11.4781 18.2609C10.8229 17.3311 9.95654 16.5644 8.9506 16.0361C8.90348 14.7818 8.55457 13.5575 7.90751 12.4791L7.05291 11.0562C6.52819 10.1808 6.24998 9.1785 6.24998 8.15625H4.43748C4.43748 9.50656 4.80451 10.8315 5.49869 11.9888L6.35238 13.4116C6.71216 14.0106 6.94598 14.6713 7.06379 15.3546L3.75145 14.5272L3.31101 16.2853L6.93601 17.1916C7.26951 17.2749 7.5876 17.3973 7.89391 17.5414L7.82141 17.7915C7.57491 18.5328 6.88435 19.0312 6.10316 19.0312H3.7451C2.1501 19.0312 0.715508 19.9185 0.00228882 21.3449L1.62357 22.156C2.02776 21.3467 2.84066 20.8438 3.7451 20.8438H6.10316C7.56041 20.8438 8.85091 19.971 9.42819 18.6243C9.79341 18.9941 10.1034 19.4155 10.348 19.8804C9.55688 21.2135 8.96873 22.7695 8.96873 24.4688C8.96873 26.1154 9.46807 27.666 10.3372 28.9719C9.65113 29.3253 9.05391 29.7966 8.56907 30.363L6.75295 29.1522L5.74791 30.6603L7.62113 31.9091C7.34291 32.577 7.1807 33.2983 7.16529 34.0532L5.98445 35.2341C5.32923 35.8893 4.45741 36.25 3.53123 36.25V38.0625C4.94226 38.0625 6.26901 37.5133 7.26588 36.5155L7.53866 36.2428C7.60935 36.4313 7.68548 36.617 7.7761 36.7974L8.8047 38.8555C8.91254 39.0693 8.96873 39.3095 8.96873 39.5506C8.96873 40.0372 8.73582 40.503 8.34613 40.7957L7.88123 41.1438C6.29257 42.3355 5.34373 44.2332 5.34373 46.2188H7.15623C7.15623 44.8005 7.8341 43.4447 8.96873 42.5938L9.43454 42.2448C10.2774 41.6114 10.7812 40.6045 10.7812 39.5506C10.7812 39.0304 10.658 38.5102 10.426 38.0444L9.39738 35.9863C9.11735 35.4262 8.96873 34.7982 8.96873 34.172C8.96873 32.5045 9.96923 31.0255 11.518 30.4065L11.5361 30.3992C12.1125 30.9403 12.7677 31.407 13.4991 31.7695V35.3438C13.4991 36.0117 13.8661 36.5898 14.4053 36.9043V47.125C14.4053 49.87 15.559 52.5244 17.5699 54.4049C19.4386 56.1531 21.8293 57.0938 24.3632 57.0938C24.5925 57.0938 24.8236 57.0856 25.0547 57.0711C30.2638 56.7231 34.3437 52.2136 34.3437 46.8042V29.9062C34.3437 28.6058 34.9056 27.366 35.8862 26.5033C36.8776 25.6306 38.1473 25.2382 39.4758 25.414C41.7161 25.7003 43.4062 27.714 43.4062 30.0957V34.4375C43.4062 35.4371 44.2191 36.25 45.2187 36.25V41.2027L41.9037 43.4121C41.4958 42.3772 40.5035 41.6875 39.3816 41.6875H37.9687V43.5H39.3816C39.7722 43.5 40.1184 43.7483 40.2416 44.1199L40.3513 44.4488L37.4667 46.3719L38.4717 47.8799L41.6599 45.7547L42.2344 46.3293C42.403 46.4979 42.5 46.7308 42.5 46.9691V48.9375H44.3125V46.9691C44.3125 46.2432 44.0297 45.5599 43.5159 45.047L43.1969 44.728L45.2242 43.3758C45.2568 44.3754 45.8214 45.2672 46.7204 45.7176L49.5361 47.125L46.7213 48.5324C45.7942 48.9955 45.2187 49.928 45.2187 50.9639V52.0024L42.0949 53.5648L42.906 55.1861L45.2187 54.0288V57.0938H47.0312V50.9639C47.0312 50.6186 47.2234 50.3078 47.5324 50.1528L50.6562 48.5922V50.75H52.4687V48.2451C52.4687 47.2084 51.8933 46.2767 50.9662 45.8127L47.5324 44.0954C47.2234 43.9413 47.0312 43.6314 47.0312 43.2861V42.9055L54.9274 45.2744L55.4476 43.5381L53.0968 42.833L53.5916 42.0917C53.7592 41.8379 54.0411 41.6875 54.3447 41.6875ZM45.2187 34.4375V32.625H47.0312V34.4375H45.2187ZM47.0312 30.8125H45.2187V30.0957C45.2187 29.0009 44.9523 27.966 44.4865 27.0525L46.0733 26.1C46.6905 27.2654 47.0312 28.5704 47.0312 29.9062V30.8125ZM45.0565 24.5965L43.4461 25.5635C43.1226 25.2164 42.7673 24.901 42.3758 24.6337L43.4669 23.1792C43.8059 23.4121 44.1348 23.6631 44.4412 23.9504C44.6596 24.1543 44.8635 24.3709 45.0565 24.5965ZM34.3057 23.2091L35.3705 24.6292C35.134 24.7859 34.9038 24.9536 34.6881 25.143C34.5431 25.2708 34.4081 25.4076 34.2767 25.5463L32.7551 24.6328C33.2118 24.0927 33.732 23.6151 34.3057 23.2091ZM31.7383 26.1372L33.2309 27.0325C32.7814 27.9152 32.5312 28.8958 32.5312 29.9062V30.8125H30.7187V30.2271C30.7187 28.7481 31.0921 27.3542 31.7383 26.1372ZM30.7187 40.7812V36.25H32.5312V40.7812H30.7187ZM32.5312 42.5938V44.4062H30.7187V42.5938H32.5312ZM30.7187 34.4375V32.625H32.5312V34.4375H30.7187ZM18.0312 37.1562V40.7812H16.2187V37.1562H18.0312ZM16.2187 42.5938H18.0312V44.4062H16.2187V42.5938ZM10.7812 24.4688C10.7812 20.5991 14.708 17.448 15.4937 16.8563L17.125 15.6328L18.7544 16.8553C19.5419 17.448 23.4687 20.5991 23.4687 24.4688C23.4687 27.0588 21.9118 29.3652 19.503 30.344L18.9375 30.5742V35.3438H15.3125V30.5742L14.747 30.344C12.3382 29.3652 10.7812 27.0588 10.7812 24.4688ZM16.2187 46.2188H18.0312V46.9356C18.0312 48.0303 18.2977 49.0653 18.7635 49.9788L17.1766 50.9313C16.5595 49.7658 16.2187 48.4608 16.2187 47.125V46.2188ZM18.1934 52.4347L19.8039 51.4678C20.1274 51.8148 20.4826 52.1302 20.8741 52.3976L19.783 53.8521C19.4441 53.6192 19.1151 53.3682 18.8088 53.0809C18.5904 52.877 18.3865 52.6604 18.1934 52.4347ZM24.935 55.2622C23.7053 55.3483 22.5081 55.1526 21.4007 54.7157L22.5416 53.1942C22.8661 53.2929 23.1996 53.3709 23.5439 53.4153C24.4493 53.5295 25.3564 53.4497 26.2083 53.1932L27.3411 54.7031C26.5862 55.0094 25.7806 55.2051 24.935 55.2622ZM28.9443 53.8222L27.8794 52.4021C28.116 52.2453 28.3462 52.0777 28.5619 51.8883C28.7069 51.7605 28.8419 51.6236 28.9733 51.485L30.4949 52.3985C30.0381 52.9386 29.5179 53.4162 28.9443 53.8222ZM31.5117 50.8941L30.0191 49.9987C30.4686 49.116 30.7187 48.1355 30.7187 47.125V46.2188H32.5312V46.8042C32.5312 48.2832 32.1579 49.677 31.5117 50.8941ZM37.0425 23.838L35.9097 22.3273C36.6637 22.0219 37.4703 21.8252 38.3158 21.769C39.5474 21.6847 40.7437 21.8805 41.8493 22.3155L40.7092 23.8362C40.3848 23.7374 40.0513 23.6595 39.7069 23.6151C38.8016 23.5018 37.8944 23.5815 37.0425 23.838Z" fill="#0E97FB"/>
</svg>
