<svg width="24" height="58" viewBox="0 0 24 58" fill="none" xmlns="http://www.w3.org/2000/svg">
<path d="M21.92 19.634C22.0697 19.6953 22.2302 19.7269 22.3921 19.7269C22.6342 19.7269 22.8705 19.653 23.0703 19.5154C23.4106 19.2825 23.6114 18.895 23.6061 18.4827V1.49355C23.6134 1.08078 23.4116 0.692324 23.0703 0.459929C22.729 0.22802 22.2934 0.183291 21.9122 0.341786L11.0354 4.80446V1.24463C11.0354 0.557165 10.4782 0 9.79076 0C9.1033 0 8.54613 0.557165 8.54613 1.24463V5.82495L1.19799 8.83685C0.730287 9.02841 0.424965 9.48348 0.424965 9.98862C0.424965 10.4938 0.730287 10.9488 1.19799 11.1404L8.54613 14.1513V31.7526C6.77546 32.3399 5.5746 33.989 5.55904 35.8545V56.7861C5.57654 57.4736 6.14732 58.0166 6.83478 57.9996H12.9957C13.6826 58.0162 14.2539 57.4731 14.2714 56.7861V35.8545C14.2554 33.8928 12.931 32.1828 11.0354 31.6772V15.1718L21.92 19.634ZM8.04829 55.5104V53.0211H11.7822V55.5104H8.04829ZM11.7822 35.8545V50.5319H8.04829V35.8545C8.05655 34.9978 8.65066 34.2589 9.48544 34.0678C9.58316 34.0906 9.68283 34.1023 9.78298 34.1028C9.92154 34.1028 10.0591 34.0819 10.1914 34.0406C11.0962 34.1704 11.7715 34.9405 11.7822 35.8545ZM9.89869 7.96027C10.1462 7.93839 10.381 7.84018 10.5696 7.67877L21.1168 3.34931V16.627L4.93673 9.98813L9.89869 7.96027Z" fill="#0E97FB"/>
</svg>
