<svg width="58" height="58" viewBox="0 0 58 58" fill="none" xmlns="http://www.w3.org/2000/svg">
<path d="M57.61 39.8418L49.197 33.2975L48.3 28.8143C48.2627 28.6316 48.1731 28.4637 48.0419 28.3311L46.7971 27.065L49.0026 24.86C49.3797 24.4825 49.3797 23.871 49.0026 23.4935L41.2715 15.7624C41.0903 15.5807 40.8445 15.4783 40.5883 15.4783H25.5375L12.538 1.93898L12.4819 1.87999C12.2917 1.6384 12.0794 1.4152 11.8467 1.21324L11.7646 1.12736C11.7189 1.08773 11.6688 1.05281 11.616 1.02308C10.7813 0.374261 9.75494 0.0198882 8.69749 0.0161133C6.03001 0.0194164 3.86885 2.18057 3.86555 4.84805V44.4699H0.966387C0.432704 44.4699 0 44.9026 0 45.4363V57.0329C0 57.5666 0.432704 57.9993 0.966387 57.9993H8.69749C9.23117 57.9993 9.66387 57.5666 9.66387 57.0329V45.4363C9.66387 44.9026 9.23117 44.4699 8.69749 44.4699H5.79832V8.68859C6.62976 9.32797 7.64852 9.67621 8.69749 9.67998C11.0441 9.67385 13.0472 7.98267 13.4464 5.67052L24.1597 16.8312V31.9069C24.1597 32.1631 24.2616 32.409 24.4428 32.5901L32.1739 40.3212C32.5514 40.6983 33.1629 40.6983 33.5404 40.3212L35.7563 38.1053L37.0058 39.3549C37.1408 39.4893 37.3126 39.5814 37.4999 39.6186L42.0138 40.5223L49.5292 48.9772C49.8836 49.3773 50.4956 49.4146 50.8958 49.0602C51.2959 48.7059 51.3332 48.0939 50.9788 47.6937L43.2477 38.9962C43.1081 38.8391 42.9207 38.732 42.7145 38.6909L38.1723 37.7816L30.2855 29.8939L36.3363 22.1029L38.5125 21.3955L46.4612 29.4791L47.3723 34.0326C47.4172 34.2601 47.5427 34.4639 47.7262 34.606L56.4237 41.3707C56.695 41.592 57.0655 41.6486 57.3906 41.5193C57.7162 41.3896 57.9464 41.0942 57.9917 40.7469C58.0375 40.3996 57.8912 40.0546 57.61 39.8456V39.8418ZM7.7311 56.0666H1.93277V46.4027H7.7311V56.0666ZM45.4424 25.6862L41.5268 21.7046L43.0042 20.2272L46.9528 24.1758L45.4424 25.6862ZM11.5966 4.84805C11.5966 6.4491 10.2985 7.74721 8.69749 7.74721C7.09644 7.74721 5.79832 6.4491 5.79832 4.84805C5.79832 3.247 7.09644 1.94889 8.69749 1.94889C9.34442 1.95172 9.97106 2.17255 10.4764 2.576L11.0913 3.2168C11.4206 3.69669 11.5971 4.26576 11.5966 4.84805ZM32.8572 38.2714L28.9086 34.3228L30.4412 32.7902L34.3898 36.7388L32.8572 38.2714ZM38.4833 19.3717L35.4567 20.3574C35.2731 20.4178 35.1118 20.5311 34.9929 20.683L28.2281 29.3805C27.929 29.7655 27.9634 30.3129 28.3084 30.6574L29.0747 31.4237L27.542 32.9563L26.0925 31.5067V17.4111H40.1881L41.6377 18.8607L40.1716 20.3268L39.4714 19.6133C39.2142 19.3523 38.832 19.2584 38.4833 19.3717Z" fill="white"/>
</svg>
