<svg width="36" height="58" viewBox="0 0 36 58" fill="none" xmlns="http://www.w3.org/2000/svg">
<path d="M28.0249 24.2676C28.3666 23.6278 28.6167 22.9345 28.7508 22.2022C29.1587 19.9683 28.5433 17.7262 27.0634 16.0506C26.6202 15.5485 26.2224 15.012 25.8771 14.4493C26.6239 13.7732 27.0625 12.8126 27.0625 11.7812C27.0625 10.0956 25.9061 8.67463 24.3438 8.27044V1.8125C24.3438 1.31225 23.9387 0.90625 23.4375 0.90625H12.5625C12.0613 0.90625 11.6562 1.31225 11.6562 1.8125V9.21384C11.6562 11.6199 10.7047 14.0306 8.97556 16.008C8.96106 16.0216 8.94837 16.0352 8.93569 16.0497C7.76844 17.3737 7.125 19.0766 7.125 20.8438C7.125 22.0781 7.43675 23.2408 7.98322 24.2594C6.84134 25.5744 6.21875 27.2319 6.21875 29C6.21875 30.759 6.84678 32.4184 7.98594 33.7342C7.43766 34.7547 7.125 35.9192 7.125 37.1562C7.125 38.754 7.647 40.2846 8.60853 41.5425C8.23244 42.1216 8.03125 42.794 8.03125 43.5C8.03125 45.4457 9.57188 47.0389 11.4977 47.1214C11.6028 47.6887 11.6562 48.246 11.6562 48.7862V56.1875C11.6562 56.6878 12.0613 57.0938 12.5625 57.0938H23.4375C23.9387 57.0938 24.3438 56.6878 24.3438 56.1875V48.7862C24.3438 46.3628 25.3089 43.9341 27.0616 41.9503C28.5433 40.2738 29.1577 38.0317 28.7499 35.7978C28.6167 35.0655 28.3666 34.3722 28.024 33.7324C29.1614 32.4184 29.7812 30.7636 29.7812 29C29.7812 27.2355 29.1623 25.5807 28.0249 24.2676ZM10.2597 17.2903C10.2724 17.2777 10.2842 17.2641 10.2969 17.2514C12.3423 14.935 13.4688 12.0803 13.4688 9.21475V2.71875H22.5312V9.0625C22.5312 9.56275 22.9363 9.96875 23.4375 9.96875C24.4371 9.96875 25.25 10.7817 25.25 11.7812C25.25 12.451 24.873 13.0636 24.2667 13.3799C23.8236 13.611 23.6505 14.1574 23.8816 14.6015C24.3728 15.5458 24.9863 16.4376 25.704 17.2505C26.8151 18.5074 27.2746 20.194 26.9683 21.8769C26.5767 24.0192 24.8784 25.7447 22.7433 26.1689C21.6576 26.3873 20.5692 26.2822 19.5841 25.8816C20.8474 24.5766 21.625 22.7994 21.625 20.8438H19.8125C19.8125 23.8425 17.3738 26.2812 14.375 26.2812C11.3762 26.2812 8.9375 23.8425 8.9375 20.8438C8.9375 19.5369 9.40694 18.2763 10.2597 17.2903ZM8.03125 29C8.03125 27.8219 8.40281 26.7117 9.08612 25.7864C10.4102 27.202 12.2888 28.0938 14.375 28.0938C15.6954 28.0938 16.9333 27.7385 18.0009 27.1204C19.5307 28.0068 21.3142 28.3013 23.0968 27.9478C24.5893 27.6506 25.9134 26.873 26.9202 25.7955C27.599 26.7181 27.9688 27.8255 27.9688 29C27.9688 30.1745 27.599 31.281 26.9202 32.2054C25.9134 31.1279 24.5893 30.3494 23.0968 30.0531C21.3187 29.6996 19.5316 29.9932 18.0009 30.8805C16.9333 30.2606 15.6954 29.9062 14.375 29.9062C12.2888 29.9062 10.4111 30.7971 9.08794 32.2117C8.40553 31.2856 8.03125 30.1727 8.03125 29ZM25.7031 40.7495C23.6577 43.0659 22.5312 45.9206 22.5312 48.7862V55.2812H13.4688V48.7862C13.4688 47.8609 13.341 46.9012 13.089 45.9333C13.0265 45.6904 12.8607 45.4865 12.6404 45.3669C12.4501 45.2636 12.2272 45.2337 12.0169 45.2781C11.8991 45.3007 11.7777 45.3125 11.6562 45.3125C10.6567 45.3125 9.84375 44.4996 9.84375 43.5C9.84375 43.0034 10.0458 42.5376 10.4129 42.1887C10.5869 42.0228 10.6893 41.7944 10.6956 41.5543C10.7011 41.3132 10.6113 41.0803 10.4455 40.9063C9.47309 39.8877 8.9375 38.5564 8.9375 37.1562C8.9375 34.1575 11.3762 31.7188 14.375 31.7188C17.3738 31.7188 19.8125 34.1575 19.8125 37.1562H21.625C21.625 35.2006 20.8465 33.4234 19.5832 32.1175C20.5683 31.7169 21.6567 31.6136 22.7424 31.8302C24.8775 32.2553 26.5758 33.9808 26.9673 36.1231C27.2746 37.806 26.8142 39.4926 25.7031 40.7495Z" fill="#0E97FB"/>
<path d="M14.375 25.375V23.5625C12.8761 23.5625 11.6562 22.3427 11.6562 20.8438H9.84375C9.84375 23.3423 11.8765 25.375 14.375 25.375Z" fill="#0E97FB"/>
<path d="M9.84375 37.1562H11.6562C11.6562 35.6573 12.8761 34.4375 14.375 34.4375V32.625C11.8765 32.625 9.84375 34.6577 9.84375 37.1562Z" fill="#0E97FB"/>
<path d="M1.94981 18.7661L3.23144 17.4845L5.95042 20.2035L4.66879 21.4851L1.94981 18.7661Z" fill="#0E97FB"/>
<path d="M1.948 39.231L4.66698 36.512L5.94861 37.7936L3.22963 40.5126L1.948 39.231Z" fill="#0E97FB"/>
<path d="M0.36348 25.2793L1.17367 23.6589L4.79683 25.4705L3.98664 27.0909L0.36348 25.2793Z" fill="#0E97FB"/>
<path d="M0.364388 32.71L3.98754 30.8984L4.79773 32.5188L1.17457 34.3303L0.364388 32.71Z" fill="#0E97FB"/>
<path d="M30.0408 20.2056L32.7598 17.4866L34.0415 18.7682L31.3225 21.4872L30.0408 20.2056Z" fill="#0E97FB"/>
<path d="M30.0381 37.7983L31.3198 36.5167L34.0387 39.2357L32.7571 40.5173L30.0381 37.7983Z" fill="#0E97FB"/>
<path d="M31.1651 25.4697L34.7883 23.6581L35.5984 25.2785L31.9753 27.0901L31.1651 25.4697Z" fill="#0E97FB"/>
<path d="M31.166 32.541L31.9762 30.9206L35.5994 32.7322L34.7892 34.3526L31.166 32.541Z" fill="#0E97FB"/>
</svg>
