<svg width="58" height="58" viewBox="0 0 58 58" fill="none" xmlns="http://www.w3.org/2000/svg">
<g clip-path="url(#clip0)">
<path d="M56.7917 55.5832C56.2673 55.5832 55.7864 55.2425 55.6341 54.7156L46.7263 24.4299C44.9331 18.3399 39.6986 13.9513 33.3863 13.2504L1.073 9.65928C0.410832 9.58437 -0.0652515 8.98745 0.00724853 8.32528C0.0797486 7.6607 0.657332 7.17495 1.34367 7.25712L33.6569 10.8483C40.9359 11.6579 46.9752 16.7208 49.0439 23.7484L57.9517 54.0341C58.1402 54.6745 57.7753 55.3464 57.1324 55.5349C57.0189 55.5687 56.9053 55.5832 56.7917 55.5832Z" fill="#0E97FB"/>
<path d="M44.7083 57.9998C44.1887 57.9998 43.7078 57.6615 43.5507 57.1395C42.021 52.0476 39.266 47.9828 36.6004 44.0508C32.9827 38.7148 29.2417 33.1976 28.9976 25.4135C28.9758 24.7465 29.5002 24.1883 30.1672 24.1665H30.2059C30.8584 24.1665 31.3925 24.6837 31.4142 25.3362C31.6342 32.4194 35.0175 37.4098 38.6014 42.6951C41.3685 46.7768 44.2298 50.9963 45.8635 56.4435C46.0568 57.0815 45.6943 57.7558 45.0539 57.9491C44.9403 57.9829 44.8243 57.9998 44.7083 57.9998Z" fill="#0E97FB"/>
<path d="M49.5416 9.66648C49.2323 9.66648 48.923 9.54807 48.6861 9.31365C48.2149 8.8424 48.2149 8.07632 48.6861 7.60507L51.1028 5.1884C51.5741 4.71715 52.3401 4.71715 52.8114 5.1884C53.2826 5.65965 53.2826 6.42573 52.8114 6.89698L50.3947 9.31365C50.1603 9.54807 49.851 9.66648 49.5416 9.66648Z" fill="#0E97FB"/>
<path d="M56.7917 16.9167H51.9583C51.2913 16.9167 50.75 16.3753 50.75 15.7083C50.75 15.0413 51.2913 14.5 51.9583 14.5H56.7917C57.4587 14.5 58 15.0413 58 15.7083C58 16.3753 57.4587 16.9167 56.7917 16.9167Z" fill="#0E97FB"/>
<path d="M42.2916 7.25C41.6246 7.25 41.0833 6.70867 41.0833 6.04167V1.20833C41.0833 0.541333 41.6246 0 42.2916 0C42.9586 0 43.5 0.541333 43.5 1.20833V6.04167C43.5 6.70867 42.9586 7.25 42.2916 7.25Z" fill="#0E97FB"/>
<path d="M1.20833 24.167C0.819248 24.167 0.437414 23.9785 0.202998 23.6281C-0.166752 23.0722 -0.0169191 22.3231 0.538915 21.9533L1.43066 21.3588C5.78308 18.4564 11.1288 17.7387 16.0902 19.3965C16.7233 19.6067 17.0641 20.2907 16.8538 20.9238C16.6436 21.5594 15.9597 21.9026 15.3265 21.6875C11.0804 20.2737 6.49842 20.8827 2.7695 23.3695L1.87775 23.964C1.67233 24.1017 1.44033 24.167 1.20833 24.167Z" fill="#0E97FB"/>
<path d="M3.91742 36.3683C2.97008 36.3683 2.03 36.3296 1.09958 36.245C0.435001 36.1846 -0.0579992 35.5974 0.0048341 34.9328C0.0676674 34.2682 0.698418 33.7728 1.31708 33.838C14.1133 35.0053 29.4809 26.8104 29.6356 26.7282C30.2349 26.4116 30.9575 26.634 31.2741 27.2212C31.5907 27.8085 31.3708 28.5407 30.7835 28.8573C30.1721 29.1836 16.6678 36.3683 3.91742 36.3683Z" fill="#0E97FB"/>
</g>
<defs>
<clipPath id="clip0">
<rect width="58" height="58" fill="white"/>
</clipPath>
</defs>
</svg>
